<svg xmlns="http://www.w3.org/2000/svg" viewBox="0 0 100 100" width="100" height="100">
  <defs>
    <radialGradient id="glow" cx="50%" cy="50%" r="50%">
      <stop offset="0%" stop-color="#FFFBEA" />
      <stop offset="100%" stop-color="#FFD700" />
    </radialGradient>
  </defs>

  <!-- 메인 별 -->
  <polygon points="50,20 57,38 75,38 60,50 66,68 50,57 34,68 40,50 25,38 43,38" fill="url(#glow)" />

  <!-- 작은 반짝임들 -->
  <polygon points="25,18 27,23 32,25 27,27 25,32 23,27 18,25 23,23" fill="#FFD700" />
  <polygon points="75,13 77,18 82,20 77,22 75,27 73,22 68,20 73,18" fill="#FFD700" />
  <polygon points="80,63 82,68 87,70 82,72 80,77 78,72 73,70 78,68" fill="#FFD700" />
</svg>